<svg width="21" height="25" viewBox="0 0 21 25" fill="none" xmlns="http://www.w3.org/2000/svg">
<path d="M17.0121 13.5748C16.9842 10.5488 19.5534 9.0766 19.6709 9.00806C18.2158 6.93969 15.9606 6.65709 15.1681 6.63455C13.2739 6.4402 11.4366 7.73962 10.4717 7.73962C9.48754 7.73962 8.00169 6.65333 6.40028 6.68525C4.33954 6.71624 2.41169 7.87952 1.35436 9.68594C-0.827719 13.3692 0.799689 18.7819 2.89028 21.7591C3.93606 23.2172 5.15806 24.8452 6.75754 24.788C8.32236 24.7251 8.90687 23.8153 10.7952 23.8153C12.6663 23.8153 13.2152 24.788 14.8464 24.7513C16.5258 24.7251 17.5832 23.2867 18.5924 21.8154C19.8009 20.1442 20.2862 18.4984 20.3055 18.4139C20.266 18.4007 17.0439 17.2017 17.0121 13.5748Z" fill="white"/>
<path d="M13.9307 4.67603C14.7723 3.64982 15.3481 2.2537 15.1883 0.836914C13.9701 0.889492 12.4467 1.65844 11.5695 2.66211C10.7933 3.54655 10.1 4.99619 10.2791 6.35946C11.6475 6.45898 13.0524 5.68627 13.9307 4.67603Z" fill="white"/>
</svg>
