<svg width="78" height="18" viewBox="0 0 78 18" fill="none" xmlns="http://www.w3.org/2000/svg">
<path d="M11.6581 13.5787H9.47123L8.27331 9.9086H4.10945L2.96834 13.5787H0.839233L4.96457 1.08398H7.51256L11.6581 13.5787ZM7.9122 8.36882L6.82886 5.10618C6.71427 4.77288 6.49953 3.98797 6.18271 2.75239H6.14419C6.01805 3.2838 5.81486 4.06871 5.5356 5.10618L4.47153 8.36882H7.9122Z" fill="white"/>
<path d="M22.2671 8.96324C22.2671 10.4955 21.8424 11.7067 20.9931 12.5958C20.2323 13.3873 19.2877 13.7826 18.16 13.7826C16.9429 13.7826 16.0685 13.3563 15.536 12.5038H15.4975V17.2499H13.4444V7.53519C13.4444 6.57189 13.4184 5.58324 13.3683 4.56924H15.1739L15.2885 5.99729H15.327C16.0117 4.92132 17.0507 4.38428 18.4451 4.38428C19.5352 4.38428 20.4452 4.80396 21.1732 5.64427C21.9031 6.48551 22.2671 7.59152 22.2671 8.96324ZM20.1755 9.03647C20.1755 8.15955 19.9733 7.43661 19.5669 6.86764C19.123 6.27426 18.5269 5.97757 17.7797 5.97757C17.2732 5.97757 16.8129 6.14282 16.4017 6.46861C15.9895 6.79722 15.7199 7.22629 15.5938 7.75771C15.5302 8.00557 15.4984 8.20837 15.4984 8.36798V9.87021C15.4984 10.5255 15.7045 11.0786 16.1166 11.5302C16.5288 11.9818 17.0642 12.2071 17.7229 12.2071C18.4961 12.2071 19.098 11.916 19.5284 11.3358C19.9598 10.7546 20.1755 9.98851 20.1755 9.03647Z" fill="white"/>
<path d="M32.8953 8.96324C32.8953 10.4955 32.4707 11.7067 31.6204 12.5958C30.8606 13.3873 29.9159 13.7826 28.7883 13.7826C27.5711 13.7826 26.6967 13.3563 26.1652 12.5038H26.1267V17.2499H24.0736V7.53519C24.0736 6.57189 24.0476 5.58324 23.9976 4.56924H25.8031L25.9177 5.99729H25.9562C26.6399 4.92132 27.679 4.38428 29.0743 4.38428C30.1634 4.38428 31.0734 4.80396 31.8033 5.64427C32.5304 6.48551 32.8953 7.59152 32.8953 8.96324ZM30.8038 9.03647C30.8038 8.15955 30.6006 7.43661 30.1942 6.86764C29.7503 6.27426 29.1562 5.97757 28.4079 5.97757C27.9004 5.97757 27.4411 6.14282 27.029 6.46861C26.6168 6.79722 26.3481 7.22629 26.222 7.75771C26.1594 8.00557 26.1267 8.20837 26.1267 8.36798V9.87021C26.1267 10.5255 26.3327 11.0786 26.743 11.5302C27.1551 11.9808 27.6905 12.2071 28.3511 12.2071C29.1244 12.2071 29.7262 11.916 30.1567 11.3358C30.5881 10.7546 30.8038 9.98851 30.8038 9.03647Z" fill="white"/>
<path d="M44.7783 10.0748C44.7783 11.1376 44.3998 12.0023 43.6401 12.6699C42.8052 13.3994 41.6429 13.7637 40.1493 13.7637C38.7704 13.7637 37.6649 13.5045 36.8281 12.9853L37.3038 11.3169C38.2051 11.8483 39.1941 12.115 40.2716 12.115C41.0449 12.115 41.6467 11.9441 42.0791 11.6042C42.5095 11.2643 42.7243 10.808 42.7243 10.2391C42.7243 9.73207 42.5471 9.30488 42.1918 8.95843C41.8384 8.61198 41.2481 8.28994 40.4238 7.99231C38.1801 7.17641 37.0592 5.98121 37.0592 4.40951C37.0592 3.38236 37.4521 2.54018 38.2388 1.88483C39.0227 1.22855 40.0684 0.900879 41.3761 0.900879C42.5423 0.900879 43.511 1.09898 44.2843 1.49426L43.771 3.12605C43.0488 2.74298 42.2322 2.55145 41.3184 2.55145C40.5961 2.55145 40.0318 2.72514 39.6274 3.07065C39.2856 3.37955 39.1141 3.75604 39.1141 4.20201C39.1141 4.69587 39.3096 5.10429 39.7025 5.42539C40.0444 5.72207 40.6655 6.04317 41.5668 6.38962C42.6694 6.82245 43.4793 7.32851 44.0002 7.90875C44.5193 8.4871 44.7783 9.21099 44.7783 10.0748Z" fill="white"/>
<path d="M51.5662 6.07132H49.3032V10.4456C49.3032 11.5582 49.7019 12.114 50.5012 12.114C50.8681 12.114 51.1724 12.083 51.4131 12.0211L51.4699 13.5411C51.0655 13.6885 50.533 13.7627 49.8733 13.7627C49.0625 13.7627 48.4289 13.5214 47.9715 13.0398C47.516 12.5572 47.2868 11.7478 47.2868 10.6109V6.06945H45.9387V4.56722H47.2868V2.9176L49.3032 2.32422V4.56722H51.5662V6.07132Z" fill="white"/>
<path d="M61.7765 8.99989C61.7765 10.3848 61.3701 11.5217 60.5593 12.4109C59.709 13.3263 58.5804 13.7826 57.1735 13.7826C55.8177 13.7826 54.7382 13.3441 53.9331 12.4672C53.1281 11.5903 52.7256 10.4833 52.7256 9.14918C52.7256 7.75305 53.1397 6.60948 53.9707 5.72035C54.7998 4.83029 55.9188 4.38525 57.3257 4.38525C58.6815 4.38525 59.7725 4.82372 60.5959 5.70158C61.3836 6.55315 61.7765 7.65259 61.7765 8.99989ZM59.6464 9.06467C59.6464 8.23376 59.4644 7.52114 59.0956 6.92683C58.6651 6.20764 58.0498 5.84898 57.2525 5.84898C56.4272 5.84898 55.8003 6.20858 55.3699 6.92683C55.0011 7.52208 54.8191 8.24596 54.8191 9.10223C54.8191 9.93315 55.0011 10.6458 55.3699 11.2391C55.8138 11.9583 56.434 12.317 57.2342 12.317C58.018 12.317 58.6334 11.9508 59.0773 11.2204C59.4557 10.6148 59.6464 9.89465 59.6464 9.06467Z" fill="white"/>
<path d="M68.4499 6.32966C68.2467 6.29304 68.03 6.27426 67.8027 6.27426C67.0805 6.27426 66.522 6.53997 66.1291 7.07232C65.7872 7.54176 65.6158 8.13514 65.6158 8.85151V13.5788H63.5638L63.583 7.40656C63.583 6.36815 63.557 5.42269 63.506 4.57018H65.2942L65.3693 6.29398H65.4261C65.6428 5.70154 65.9847 5.22458 66.4527 4.86687C66.9101 4.54483 67.4041 4.38428 67.9366 4.38428C68.1263 4.38428 68.2977 4.39742 68.4499 4.42089V6.32966Z" fill="white"/>
<path d="M77.6317 8.64783C77.6317 9.00648 77.6076 9.3088 77.5566 9.55573H71.3975C71.4216 10.4458 71.7191 11.1265 72.2911 11.5959C72.8101 12.0156 73.4813 12.2259 74.3056 12.2259C75.2176 12.2259 76.0495 12.0842 76.7978 11.7997L77.1194 13.1892C76.245 13.561 75.2127 13.746 74.0215 13.746C72.5887 13.746 71.4639 13.3348 70.6454 12.5132C69.8288 11.6917 69.4196 10.5885 69.4196 9.20459C69.4196 7.84601 69.7999 6.71465 70.5616 5.81238C71.359 4.84908 72.4365 4.36743 73.7924 4.36743C75.1241 4.36743 76.1324 4.84908 76.817 5.81238C77.3592 6.57758 77.6317 7.52398 77.6317 8.64783ZM75.674 8.12862C75.6875 7.53524 75.5536 7.02261 75.2753 6.58978C74.92 6.03302 74.374 5.75511 73.6393 5.75511C72.9681 5.75511 72.4221 6.02645 72.0051 6.571C71.6633 7.00383 71.4601 7.52304 71.3975 8.12768H75.674V8.12862Z" fill="white"/>
</svg>
