<svg width="83" height="17" viewBox="0 0 83 17" fill="none" xmlns="http://www.w3.org/2000/svg">
<path d="M26.6115 4.45133C24.3497 4.45133 22.5021 6.13191 22.5021 8.45063C22.5021 10.7505 24.3497 12.4487 26.6115 12.4487C28.8781 12.4487 30.7258 10.7505 30.7258 8.45063C30.7258 6.13191 28.8781 4.45133 26.6115 4.45133ZM26.6115 10.8739C25.3705 10.8739 24.3028 9.87383 24.3028 8.45063C24.3028 7.00862 25.3705 6.02614 26.6115 6.02614C27.8525 6.02614 28.925 7.00862 28.925 8.45063C28.925 9.87383 27.8525 10.8739 26.6115 10.8739ZM17.6451 4.45133C15.3785 4.45133 13.5357 6.13191 13.5357 8.45063C13.5357 10.7505 15.3785 12.4487 17.6451 12.4487C19.9105 12.4487 21.7545 10.7505 21.7545 8.45063C21.7545 6.13191 19.9105 4.45133 17.6451 4.45133ZM17.6451 10.8739C16.4029 10.8739 15.3316 9.87383 15.3316 8.45063C15.3316 7.00862 16.4029 6.02614 17.6451 6.02614C18.8861 6.02614 19.9538 7.00862 19.9538 8.45063C19.9538 9.87383 18.8861 10.8739 17.6451 10.8739ZM6.97548 5.67709V7.37647H11.1319C11.0103 8.32605 10.6853 9.02414 10.187 9.51068C9.58029 10.0983 8.63539 10.7505 6.97548 10.7505C4.41761 10.7505 2.41465 8.73503 2.41465 6.23768C2.41465 3.74032 4.41761 1.72481 6.97548 1.72481C8.35853 1.72481 9.36483 2.25248 10.1075 2.93647L11.3341 1.73891C10.2953 0.770524 8.91344 0.0266045 6.97548 0.0266045C3.46789 0.0266045 0.52002 2.81307 0.52002 6.23768C0.52002 9.66229 3.46789 12.4487 6.97548 12.4487C8.87131 12.4487 10.2953 11.8423 11.4147 10.7047C12.5619 9.58472 12.9194 8.00992 12.9194 6.73832C12.9194 6.34345 12.8857 5.9803 12.8255 5.67709H6.97548ZM50.6049 6.99452C50.2667 6.10017 49.2231 4.45133 47.0973 4.45133C44.9908 4.45133 43.237 6.07197 43.237 8.45063C43.237 10.6906 44.9728 12.4487 47.2995 12.4487C49.1809 12.4487 50.2667 11.3288 50.7132 10.6765L49.3169 9.76806C48.8511 10.4332 48.2168 10.8739 47.2995 10.8739C46.3883 10.8739 45.7347 10.4661 45.3158 9.66229L50.7939 7.44933L50.6049 6.99452ZM45.0197 8.32605C44.9728 6.78416 46.2463 5.9944 47.1587 5.9944C47.8737 5.9944 48.4804 6.34345 48.6826 6.84292L45.0197 8.32605ZM40.5672 12.2055H42.368V0.453212H40.5672V12.2055ZM37.6182 5.34215H37.558C37.1535 4.87441 36.382 4.45133 35.4045 4.45133C33.3534 4.45133 31.4781 6.20947 31.4781 8.46355C31.4781 10.7047 33.3534 12.4487 35.4045 12.4487C36.382 12.4487 37.1535 12.0221 37.558 11.5403H37.6182V12.1138C37.6182 13.6428 36.7816 14.4643 35.4322 14.4643C34.332 14.4643 33.6495 13.6886 33.3679 13.0364L31.8019 13.6745C32.2532 14.7346 33.4485 16.0391 35.4322 16.0391C37.5435 16.0391 39.325 14.8262 39.325 11.8752V4.6946H37.6182V5.34215ZM35.5586 10.8739C34.3176 10.8739 33.2788 9.85972 33.2788 8.46355C33.2788 7.05446 34.3176 6.02614 35.5586 6.02614C36.7816 6.02614 37.7458 7.05446 37.7458 8.46355C37.7458 9.85972 36.7816 10.8739 35.5586 10.8739ZM59.0356 0.453212H54.7288V12.2055H56.5247V7.75254H59.0356C61.0302 7.75254 62.9862 6.34345 62.9862 4.10229C62.9862 1.86231 61.0254 0.453212 59.0356 0.453212ZM59.0826 6.1178H56.5247V2.08795H59.0826C60.4235 2.08795 61.1891 3.17504 61.1891 4.10229C61.1891 5.01191 60.4235 6.1178 59.0826 6.1178ZM70.1843 4.429C68.8868 4.429 67.5374 4.98841 66.9825 6.22827L68.5762 6.88052C68.9193 6.22827 69.55 6.01673 70.2168 6.01673C71.1485 6.01673 72.0934 6.56321 72.1079 7.52808V7.65147C71.7829 7.46814 71.0871 7.19666 70.2313 7.19666C68.5148 7.19666 66.7658 8.11921 66.7658 9.84092C66.7658 11.4157 68.1718 12.4299 69.7522 12.4299C70.9607 12.4299 71.6276 11.8976 72.0465 11.2782H72.1079V12.1867H73.8424V7.6785C73.8424 5.59483 72.2487 4.429 70.1843 4.429ZM69.9677 10.8692C69.3803 10.8692 68.5618 10.5848 68.5618 9.87383C68.5618 8.9642 69.5825 8.61516 70.466 8.61516C71.2568 8.61516 71.6276 8.78557 72.1079 9.01003C71.967 10.0983 71.0077 10.8692 69.9677 10.8692ZM80.1618 4.68638L78.0975 9.78098H78.0361L75.9019 4.68638H73.9652L77.1718 11.8059L75.3422 15.7676H77.2188L82.16 4.68638H80.1618ZM63.9732 12.2055H65.774V0.453212H63.9732V12.2055Z" fill="white"/>
</svg>
